<?xml version="1.0" encoding="UTF-8"?><svg id="Layer_1" xmlns="http://www.w3.org/2000/svg" xmlns:xlink="http://www.w3.org/1999/xlink" viewBox="0 0 64.06 277.77"><defs><style>.cls-1{fill:url(#linear-gradient);}</style><linearGradient id="linear-gradient" x1="32.03" y1="0" x2="32.03" y2="277.77" gradientUnits="userSpaceOnUse"><stop offset="0" stop-color="#005a96"/><stop offset=".22" stop-color="#005a96"/><stop offset=".61" stop-color="#ae132a"/></linearGradient></defs><g id="EcDHII"><path class="cls-1" d="M11.27,182.08c-.88,0-1.67.02-2.46,0-1.18-.04-2.04-.89-2.05-1.99-.01-1.08.76-1.94,1.92-2.02.92-.06,1.84-.01,2.8-.01v-1.53c-.88,0-1.74.02-2.59,0-1.26-.03-2.13-.87-2.13-2.01,0-1.16.85-1.96,2.14-2,.73-.02,1.46-.02,2.19-.04.06,0,.11-.06.22-.12v-26.24c-.95,0-1.9.07-2.83-.02-1.02-.1-1.72-.99-1.71-1.99.01-1.03.81-1.89,1.86-1.98.36-.03.73-.01,1.09-.02.59,0,1.19,0,1.89,0,.02-.47.04-.89.07-1.49-.99,0-1.9.04-2.81,0-1.63-.09-2.57-1.57-1.88-2.92.37-.73.99-1.14,1.84-1.14.79,0,1.59,0,2.46,0v-23.72c-.73,0-1.48,0-2.23,0-1.33-.02-2.25-.82-2.29-1.98-.04-1.2.89-2.08,2.27-2.11.86-.02,1.71,0,2.64,0v-1.47c-.85,0-1.73,0-2.61,0-1.34-.01-2.25-.8-2.3-1.96-.04-1.2.87-2.07,2.26-2.12.73-.03,1.45,0,2.23,0,.04-.28.1-.5.1-.72,0-6.67.06-13.33-.03-20-.06-4.2-1.88-7.58-5.33-10.05-.75-.54-1.52-.87-2.48-.78-.82.07-1.66,0-2.49.02-.65.02-1.01-.24-1.01-.92,0-3.32,0-6.63,0-9.95,0-.62.28-.93.9-.93.52,0,1.05,0,1.65,0v-15.26c-.51,0-1.04-.02-1.56,0-.66.03-.99-.26-.99-.93,0-3.32,0-6.63,0-9.95,0-.78.48-.91,1.12-.91,2.45,0,4.91,0,7.36,0,.36,0,.72,0,1.16,0V11.77c-.88,0-1.77-.03-2.65,0-.74.03-1.09-.21-1.08-1.02.03-3.25.02-6.5,0-9.75,0-.72.26-1.06.99-1,.16.01.33,0,.5,0,16.42,0,32.84,0,49.26,0,1.54,0,1.56.01,1.56,1.56,0,2.98-.02,5.97.01,8.95.01.94-.3,1.35-1.28,1.26-.65-.06-1.31-.01-2.02-.01v21.02c.41,0,.83,0,1.24,0,2.22,0,4.44.03,6.67-.01.88-.01,1.23.25,1.21,1.19-.05,3.08-.02,6.17-.02,9.25q0,1.33-1.31,1.35c-.26,0-.52.02-.82.03v15.06c.07.04.15.12.24.13q1.9.19,1.9,2.1c0,2.89-.02,5.77.01,8.66.01.84-.31,1.14-1.11,1.09-.63-.04-1.27.06-1.89-.02-1.39-.18-2.53.35-3.56,1.19-2.65,2.15-4.27,4.77-4.24,8.34.05,6.9-.02,13.79-.05,20.69,0,.39,0,.78,0,1.32.77,0,1.45,0,2.14,0,1.55.02,2.52.84,2.49,2.09-.03,1.22-.98,1.99-2.47,1.99-.69,0-1.38,0-2.14,0v1.47c.73,0,1.45,0,2.17,0,1.48.02,2.43.82,2.44,2.04.01,1.22-.96,2.04-2.42,2.05-.72,0-1.44,0-2.25,0v23.71c.76,0,1.57,0,2.38,0,1.33.01,2.25.81,2.29,1.97.04,1.16-.85,2.04-2.18,2.09-.82.04-1.64,0-2.53,0v1.49c.85,0,1.7-.01,2.54,0,1.25.03,2.15.86,2.16,1.99.02,1.13-.84,1.97-2.11,2.05-.43.03-.86,0-1.29,0-.42,0-.85,0-1.39,0v26.35c.85,0,1.7-.01,2.56,0,1.36.02,2.24.82,2.24,2.01,0,1.17-.9,1.98-2.24,2.01-.39,0-.78,0-1.24,0v1.44c.47.02.95.03,1.43.07,1.25.1,2.1.98,2.05,2.11-.05,1.09-.93,1.9-2.12,1.93-.89.02-1.78,0-2.76,0v27.01c.87,0,1.76-.02,2.64,0,1.35.03,2.24.84,2.24,2.02,0,1.17-.91,1.99-2.24,2.01-.39,0-.78,0-1.24,0v1.52c.53,0,1.02-.03,1.51,0,1.18.09,2.01.99,1.97,2.08-.04,1.1-.92,1.92-2.1,1.95-.92.02-1.84,0-2.86,0,0,.52,0,.94,0,1.36,0,18.7-.01,37.41-.02,56.11q0,1.62-1.59,1.62c-12.77,0-25.54,0-38.31,0-1.54,0-1.81-.27-1.81-1.87.04-10.11.11-20.23.14-30.34.03-8.69.03-17.38.04-26.07,0-.23,0-.45,0-.81-.85,0-1.63.01-2.41,0-1.25-.02-2.14-.85-2.15-1.99-.01-1.15.83-1.99,2.11-2.04.79-.03,1.58,0,2.43,0v-1.52c-.77,0-1.55,0-2.33,0-1.32-.02-2.22-.86-2.21-2.04.02-1.15.87-1.95,2.16-1.99.76-.02,1.51,0,2.35,0v-27.01ZM17.03,218.72v57.63h29v-57.63h-29ZM43.1,32.64V12.65h-20.74v19.99h20.74ZM24.49,103.09c.03-.29.07-.51.07-.74,0-5.63.01-11.27,0-16.9,0-1.05.08-2.05.81-2.89.94-1.07,2.53-1.48,3.9-.98,1.43.52,2.15,1.67,2.15,3.44,0,5.63,0,11.27,0,16.9,0,.38,0,.77,0,1.18h1.19c0-.41,0-.77,0-1.13,0-5.57,0-11.14,0-16.71,0-.46,0-.94.12-1.38.46-1.76,2.07-2.74,3.99-2.47,1.7.23,2.79,1.68,2.78,3.68-.01,4.57-.02,9.15-.03,13.72,0,1.41,0,2.83,0,4.33.47-.02.77-.04,1.13-.05v-1.19c0-5.57,0-11.14,0-16.71,0-2.58,1.79-4.2,4.21-3.76.62.11,1.19.46,1.84.73v-10.47h-28.95v10.36c3.51-1.85,5.9.45,5.76,3.63-.22,4.86-.06,9.74-.05,14.62,0,.92,0,1.84,0,2.8h1.07ZM51.26,276.39v-57.63h-3.82v57.63h3.82ZM29.91,45.58v13.98h15.41v-13.98h-15.41ZM13.11,45.58v13.96h15.32v-13.96h-15.32ZM17.3,187.32c1.44-1.18,2.87-1.5,4.39-.71,1.5.78,1.74,2.18,1.73,3.73-.03,5.94,0,11.87,0,17.81,0,.29.04.58.07.94.38-.03.69-.05,1.07-.08,0-.42,0-.75,0-1.08,0-5.97,0-11.94,0-17.91,0-2.32,1.37-3.83,3.5-3.83,2.1,0,3.37,1.46,3.37,3.8-.02,5.01-.01,10.01-.01,15.02,0,1.32,0,2.63,0,3.98h1.2v-1.17c0-5.97,0-11.94,0-17.91,0-2.26,1.38-3.73,3.49-3.73,2.09,0,3.42,1.5,3.41,3.8-.02,4.64-.02,9.28-.03,13.93,0,1.68,0,3.37,0,5.09h1.13c0-.44,0-.8,0-1.16,0-5.94,0-11.87,0-17.81,0-2.65,1.93-4.3,4.39-3.74.41.09.8.28,1.25.45v-4.58h-28.96v5.16ZM31.41,172.5c.5-.03.82-.04,1.2-.06v-1.16c0-5.7,0-11.41,0-17.11,0-.46,0-.94.11-1.38.44-1.71,2.07-2.75,3.88-2.51,1.73.22,2.89,1.64,2.89,3.6,0,2.55-.05,5.11-.05,7.66,0,3.41.03,6.83.06,10.24,0,.22.07.44.11.71.34-.02.62-.04.99-.07,0-1.19,0-2.31,0-3.43,0-4.97-.01-9.95,0-14.92,0-2.48,1.73-4.11,4.03-3.78.57.08,1.11.34,1.69.53v-4.59h-28.9v4.94c.17-.07.27-.09.34-.15,1.24-.9,2.57-1.07,3.92-.35,1.36.72,1.73,1.98,1.73,3.43-.02,5.84,0,11.67,0,17.51,0,.26.03.52.05.78.93.29,1.11-.11,1.1-.91-.02-5.8-.01-11.6-.01-17.41,0-2.33,1.36-3.82,3.51-3.82,2.1,0,3.36,1.46,3.36,3.81-.02,4.81-.02,9.61-.02,14.42,0,1.29,0,2.57,0,4.01ZM46.8,45.6v13.95h13.62v-13.95h-13.62ZM12.76,218.72v57.66h2.84v-57.66h-2.84ZM32.61,136.49v-1.09c0-5.5,0-11.01,0-16.51,0-.46,0-.94.12-1.38.46-1.76,2.06-2.73,3.99-2.47,1.7.23,2.79,1.67,2.78,3.67-.01,4.57-.02,9.15-.03,13.72,0,1.35,0,2.69,0,4.04h1.14c0-.93,0-1.82,0-2.71,0-4.97,0-9.94,0-14.92,0-2.59,1.75-4.19,4.18-3.79.58.1,1.13.4,1.69.61v-2.79h-28.95v2.89c.13-.03.2-.02.25-.06,1.29-.87,2.66-1.03,4.03-.25,1.34.76,1.62,2.06,1.62,3.5-.03,4.94-.01,9.88-.01,14.82,0,.89,0,1.77,0,2.68h1.15c0-.38,0-.71,0-1.03,0-5.54,0-11.07,0-16.61,0-2.34,1.34-3.82,3.49-3.83,2.12,0,3.39,1.42,3.38,3.77-.02,4.87-.02,9.75-.02,14.62,0,1.02,0,2.04,0,3.09h1.2ZM48.03,71.67v31.41h3.34c.17-10.52.34-20.96.51-31.41h-3.85ZM4.02,59.56h7.59v-13.92h-7.59v13.92ZM47.66,182.14v26.95c.86,0,1.75-.06,2.63.02.96.09,1.22-.25,1.22-1.21-.03-8.25,0-16.5,0-24.74,0-.32-.03-.64-.05-1.01h-3.81ZM51.47,172.44v-26.21h-3.7v26.21h3.7ZM16.21,103.1v-31.41h-2.99v31.41h2.99ZM46.15,208.74c0-1.15,0-2.24,0-3.32,0-5.2,0-10.4,0-15.6,0-1.41-.6-2.16-1.82-2.27-1.47-.14-2.38.8-2.38,2.48,0,5.96,0,11.92,0,17.88,0,.26.03.51.05.83h4.15ZM30.06,208.74c0-2.01,0-3.9,0-5.79,0-4.41,0-8.82.02-13.23,0-.85-.21-1.61-1.05-1.97-.85-.37-1.79-.38-2.4.33-.43.5-.7,1.29-.71,1.96-.05,5.97-.03,11.94-.03,17.9,0,.26.05.51.07.8h4.09ZM38.14,208.75c0-3.73,0-7.34,0-10.94,0-2.65.02-5.3.02-7.95,0-1.74-1.1-2.64-2.69-2.23-1,.26-1.5.99-1.5,2.26,0,6.03,0,12.05,0,18.08,0,.25.05.51.07.78h4.1ZM21.95,208.75c.05-.13.1-.19.1-.25,0-6.33.03-12.66,0-18.98,0-1.38-1.05-2.16-2.42-1.93-1.16.19-1.77.94-1.77,2.25,0,6.03,0,12.06,0,18.09,0,.26.03.51.05.82h4.04ZM21.94,172.43c.05-.12.11-.17.11-.23,0-6.23.04-12.46,0-18.69,0-1.41-1.31-2.22-2.68-1.82-.98.29-1.5,1.01-1.5,2.19,0,5.97,0,11.93,0,17.9,0,.22.06.43.09.65h3.98ZM38.14,172.44c0-3.6,0-7.08,0-10.55,0-2.65.02-5.3.02-7.95,0-1.68-1.09-2.62-2.59-2.28-1.06.24-1.6.99-1.6,2.3,0,5.9,0,11.79,0,17.69,0,.25.05.5.08.79h4.1ZM46.02,172.43c.06-.11.11-.17.11-.23,0-6.26.03-12.52,0-18.79,0-1.07-.8-1.76-1.87-1.81-1.44-.07-2.31.83-2.31,2.46,0,5.86,0,11.73,0,17.6,0,.25.05.5.08.77h3.98ZM30.06,172.48c0-1.89,0-3.61,0-5.32,0-4.43.01-8.87.01-13.3,0-1.43-.68-2.21-1.94-2.24-1.3-.04-2.13.75-2.23,2.13-.02.3,0,.6,0,.89,0,5.03,0,10.06,0,15.09,0,.7-.04,1.39.02,2.08.02.24.3.64.48.65,1.18.06,2.37.03,3.66.03ZM47.88,112.86v23.59h3.56v-23.59h-3.56ZM38.13,103.1c.01-.32.03-.54.03-.77,0-3.21-.02-6.43-.03-9.64,0-2.55.02-5.1.02-7.65,0-1.6-.84-2.41-2.31-2.29-1.2.1-1.88.88-1.88,2.23,0,5.8,0,11.6,0,17.4,0,.22.03.45.05.72h4.11ZM46.16,103.1c0-.37,0-.67,0-.96,0-3.41-.01-6.83-.01-10.24,0-2.35.02-4.71,0-7.06,0-1.51-.99-2.31-2.47-2.07-1.12.18-1.72,1-1.73,2.41,0,5.7,0,11.4,0,17.1,0,.26.04.51.06.82h4.15ZM21.95,103.1c.05-.12.1-.17.1-.23,0-6.07.03-12.13,0-18.2,0-1.23-.84-1.94-2.06-1.93-1.35.01-2.12.84-2.13,2.32,0,5.77,0,11.54,0,17.31,0,.25.05.5.08.73h4ZM30.06,103.1c0-1.75,0-3.37,0-4.99,0-4.4,0-8.81.02-13.21,0-.95-.28-1.74-1.24-2.04-.9-.29-1.85-.22-2.42.61-.33.48-.5,1.16-.51,1.75-.04,5.69-.02,11.39-.02,17.08,0,.26.05.51.08.8h4.09ZM12.83,209.08c.75,0,1.41-.05,2.06.01.76.07.95-.23.95-.96,0-8.38.04-16.77.06-25.15,0-.28-.04-.57-.06-.83h-3.01v26.93ZM22.06,136.49c0-6.16.02-12.21-.02-18.26,0-1.25-.93-1.95-2.21-1.87-1.28.08-1.98.89-1.98,2.36,0,5.66,0,11.32,0,16.98,0,.25.04.51.07.79h4.13ZM46.16,136.48c0-1.47,0-2.83,0-4.18,0-4.57,0-9.13,0-13.7,0-1.51-.76-2.29-2.14-2.24-1.32.05-2.06.88-2.06,2.4,0,5.69,0,11.38,0,17.08,0,.22.06.44.09.65h4.11ZM38.15,136.48c0-.67,0-1.26,0-1.85,0-5.31,0-10.61,0-15.92,0-1.58-.75-2.4-2.16-2.35-1.27.05-2.03.83-2.03,2.2-.01,5.77,0,11.54,0,17.31,0,.19.03.38.05.61h4.14ZM30.07,136.47c0-.34,0-.63,0-.92,0-2.52-.01-5.04-.01-7.55,0-3.18,0-6.36.02-9.54,0-.96-.35-1.69-1.29-2.01-.91-.31-2.07,0-2.48.76-.27.5-.4,1.13-.4,1.7-.03,5.57-.02,11.13-.01,16.7,0,.29.04.58.06.87h4.12ZM12.97,146.21v26.21h2.97v-26.21h-2.97ZM32.35,173.75c-7.56,0-15.12,0-22.68,0-.33,0-.7-.05-.98.08-.25.12-.54.45-.54.69,0,.22.33.56.58.64.36.12.79.06,1.18.06,14.92,0,29.84,0,44.76,0,.27,0,.57.08.79-.02.37-.17.93-.41.97-.69.1-.65-.48-.75-1.01-.76-.27,0-.53,0-.8,0-7.43,0-14.85,0-22.28,0ZM16.07,136.47v-23.6h-2.96v23.6h2.96ZM32.33,143.4c-7.53,0-15.05,0-22.58,0-.36,0-.75-.04-1.08.07-.22.07-.5.37-.52.59-.01.22.21.56.42.68.23.14.57.11.87.11,15.25,0,30.5,0,45.75,0,.56,0,1.26.07,1.27-.73.02-.84-.72-.68-1.26-.72-.17-.01-.33,0-.5,0-7.46,0-14.92,0-22.38,0ZM32.42,137.86c-7.59,0-15.18,0-22.77,0-.3,0-.63-.07-.88.04-.25.11-.59.4-.6.61,0,.24.28.57.52.71.23.13.58.06.88.06,15.15,0,30.3,0,45.45,0,.27,0,.58.08.78-.04.28-.16.63-.45.65-.71.01-.21-.38-.52-.66-.65-.25-.11-.59-.03-.88-.03-7.49,0-14.98,0-22.48,0ZM32.3,180.77c7.53,0,15.05,0,22.58-.01.59,0,1.54.33,1.57-.68.02-.99-.91-.75-1.53-.75-15.08,0-30.17,0-45.25,0-.61,0-1.53-.24-1.52.76.01.96.91.67,1.48.67,7.56.02,15.12.01,22.68.01ZM32.2,211.81c7.59,0,15.18,0,22.77-.01.57,0,1.47.28,1.47-.67,0-.99-.91-.75-1.53-.75-15.08,0-30.17,0-45.25,0-.2,0-.44-.07-.59.02-.35.21-.65.49-.97.75.3.22.59.5.92.66.22.1.52.02.79.02,7.46,0,14.92,0,22.38,0ZM32.23,111.47c7.59,0,15.18,0,22.77,0,.27,0,.56.07.79-.03.26-.12.66-.4.64-.57-.04-.28-.31-.6-.57-.77-.19-.12-.51-.04-.78-.04-15.18,0-30.36,0-45.55,0-.27,0-.59-.08-.78.04-.27.17-.55.47-.6.75-.03.17.35.49.61.6.26.11.59.03.89.03,7.52,0,15.05,0,22.57,0ZM32.25,217.36c6.03,0,12.07,0,18.1,0,1.76,0,3.51.03,5.27-.03.29,0,.58-.39.86-.59-.27-.27-.5-.61-.83-.79-.23-.13-.58-.03-.88-.03-7.33,0-14.65,0-21.98,0-7.82,0-15.65,0-23.47,0-.54,0-1.16-.02-1.19.71-.04.79.62.71,1.14.72.2,0,.4,0,.6,0,7.46,0,14.92,0,22.38,0ZM32.31,105.92c7.53,0,15.05,0,22.58-.01.59,0,1.55.34,1.56-.68.01-1-.93-.73-1.54-.73-15.08-.01-30.17,0-45.25,0-.23,0-.51-.08-.69.02-.32.19-.57.49-.86.75.28.22.52.51.83.64.25.11.59.03.89.03,7.49,0,14.98,0,22.48,0ZM17.17,214.56h28.96v-1.38h-28.96v1.38ZM17.32,177.94h28.98v-1.37h-28.98v1.37ZM17.54,108.65h28.97v-1.33h-28.97v1.33ZM17.48,142.01h28.91v-1.35h-28.91v1.35ZM20.95,30.57c0-.93-.04-1.69.01-2.44.04-.63-.2-.95-.77-1.19-2.45-1.07-4.89-2.19-7.33-3.29-.56-.25-1.12-.51-1.8-.81,0,.95.04,1.75-.01,2.54-.04.6.2.87.73,1.1,2.73,1.19,5.43,2.43,8.15,3.65.29.13.58.25,1.02.45ZM20.95,21.41c0-.91-.05-1.61.01-2.29.06-.73-.2-1.12-.89-1.42-2.73-1.18-5.43-2.44-8.14-3.66-.25-.11-.51-.18-.8-.29-.03.21-.06.31-.06.41q-.1,2.74,2.4,3.87c2.43,1.1,4.87,2.2,7.48,3.38ZM44.61,30.43c2.89-1.31,5.71-2.58,8.52-3.88.17-.08.37-.32.38-.49.04-.93.02-1.87.02-2.96-2.31,1.04-4.43,2.01-6.56,2.97q-2.6,1.17-2.45,4.02c0,.06.03.13.09.34ZM53.53,13.91c-2.98,1.35-5.83,2.63-8.66,3.94-.16.08-.34.33-.34.51-.03.91-.02,1.83-.02,2.74.16.02.24.05.29.02,2.77-1.24,5.54-2.48,8.3-3.75.19-.09.41-.37.42-.56.04-.91.02-1.83.02-2.9ZM20.95,25.8c0-.85.08-1.54-.03-2.2-.06-.37-.36-.85-.68-1-2.84-1.34-5.7-2.61-8.56-3.9-.16-.07-.35-.1-.61-.17,0,.71.05,1.34-.01,1.96-.07.67.19.98.81,1.24,2.03.87,4.04,1.81,6.05,2.72.95.43,1.91.85,3.04,1.35ZM11.13,27.63v4.98h9.98c-.29-.36-.41-.64-.61-.73-3.08-1.42-6.18-2.81-9.37-4.25ZM53.45,18.72c-2.91,1.32-5.76,2.61-8.6,3.91-.15.07-.31.28-.32.43-.03.83-.01,1.67-.01,2.63,2.41-1.09,4.63-2.09,6.85-3.09q2.26-1.02,2.16-3.51c0-.06-.03-.13-.08-.37ZM53.47,32.63v-4.73c-2.93,1.33-5.75,2.6-8.56,3.91-.22.1-.32.45-.56.82h9.13ZM26.46,70.24v-9.07h-1.9v9.07h1.9ZM46.43,70.25v-9.06h-1.92v9.06h1.92ZM34.51,70.24h1.94v-9.04h-1.94v9.04ZM24.56,34.13v9.03h1.9v-9.03h-1.9ZM46.42,43.19v-9.05h-1.9v9.05h1.9ZM36.45,43.2v-9.05h-1.91v9.05h1.91ZM6.5,70.24v-9.05h-1.86v9.05h1.86ZM7.97,70.22h1.88v-9.04h-1.88v9.04ZM13.2,70.24v-9.06h-1.89v9.06h1.89ZM6.53,43.19v-9.04h-1.89v9.04h1.89ZM14.59,61.18v9.04h1.89v-9.04h-1.89ZM37.84,34.13v9.04h1.87v-9.04h-1.87ZM3.27,61.2h-1.85v9.02h1.85v-9.02ZM41.2,34.13v9.04h1.88v-9.04h-1.88ZM7.97,34.13v9.04h1.87v-9.04h-1.87ZM57.77,61.18v9.03h1.87v-9.03h-1.87ZM54.48,61.18v9.03h1.89v-9.03h-1.89ZM19.79,70.25v-9.06h-1.86v9.06h1.86ZM51.16,61.15v9.06h1.87v-9.06h-1.87ZM47.81,61.16v9.06h1.87v-9.06h-1.87ZM47.8,34.13v9.04h1.88v-9.04h-1.88ZM51.15,43.17h1.88v-9.04h-1.88v9.04ZM3.25,43.19v-9.03h-1.86v9.03h1.86ZM27.88,43.17h1.88v-9.03h-1.88v9.03ZM13.21,43.18v-9.02h-1.87v9.02h1.87ZM33.13,43.19v-9.04h-1.88v9.04h1.88ZM41.18,70.24h1.91v-9.04h-1.91v9.04ZM56.38,43.18v-9.02h-1.88v9.02h1.88ZM59.67,43.19v-9.05h-1.9v9.05h1.9ZM39.71,70.25v-9.06h-1.86v9.06h1.86ZM21.28,61.15v9.06h1.87v-9.06h-1.87ZM23.18,43.19v-9.05h-1.89v9.05h1.89ZM33.15,61.21h-1.92v9.01h1.92v-9.01ZM29.75,70.25v-9.06h-1.86v9.06h1.86ZM16.47,43.2v-9.06h-1.88v9.06h1.88ZM17.92,34.12v9.06h1.89v-9.06h-1.89ZM20.89,12.65h-8.3c-.02.06-.04.12-.05.17,2.76,1.25,5.52,2.49,8.35,3.78v-3.95ZM44.57,16.49c2.78-1.26,5.45-2.47,8.12-3.68-.03-.05-.05-.1-.08-.15h-8.04v3.84ZM62.79,43.2v-1.11c0-2.22,0-4.43,0-6.65,0-1.53-.09-1.59-1.67-1.23v8.98h1.67ZM61.11,61.16v9.06h1.58v-9.06h-1.58ZM47.68,1.36v9.03h1.29V1.36h-1.29ZM46.29,1.38h-1.32v9.03h1.32V1.38ZM31.47,10.4h1.28V1.37h-1.28v9.03ZM50.39,1.36v9.06h1.28V1.36h-1.28ZM7.3,1.36v9.03h1.2V1.36h-1.2ZM11.24,10.4V1.37h-1.28v9.03h1.28ZM36.87,1.37v9.03h1.31V1.37h-1.31ZM13.89,1.4h-1.28v9.02h1.28V1.4ZM40.91,10.41V1.37h-1.28v9.04h1.28ZM35.51,10.41V1.38h-1.28v9.03h1.28ZM53.12,1.34v9.06h1.24V1.34h-1.24ZM16.6,10.4V1.39h-1.28v9.01h1.28ZM28.81,10.4h1.31V1.37h-1.31v9.02ZM18.03,1.34v9.06h1.23V1.34h-1.23ZM42.22,1.36c0,2.75,0,5.39,0,8.03,0,1.19.12,1.26,1.35.91V1.36h-1.35ZM22,10.41V1.38h-1.31v9.03h1.31ZM27.39,1.37h-1.28v9.04h1.28V1.37ZM23.45,1.34v9.06h1.24V1.34h-1.24ZM7.75,71.67c1.4,1.88,2.82,3.79,4.1,5.51v-5.51h-4.1ZM56.85,10.47V1.38h-1.1v9.04c.36.02.68.03,1.1.05ZM51.41,213.17h-3.83v1.39h3.83v-1.39ZM47.74,177.94h3.76v-1.34h-3.76v1.34ZM53.38,71.67v3.49c1.04-1.17,2.06-2.32,3.1-3.49h-3.1ZM51.69,140.6c-.95,0-1.8,0-2.65,0-1.36,0-1.38.02-1.13,1.4h3.78v-1.4ZM47.95,108.64h3.83v-1.31h-3.83v1.31ZM15.87,176.6h-2.94v1.37h2.94v-1.37ZM15.72,213.18h-2.94v1.38h2.94v-1.38ZM16.04,140.69h-2.99v1.32h2.99v-1.32ZM13.12,108.65h2.98v-1.33h-2.98v1.33Z"/></g></svg>