<?xml version="1.0" encoding="UTF-8"?><svg id="Layer_1" xmlns="http://www.w3.org/2000/svg" xmlns:xlink="http://www.w3.org/1999/xlink" viewBox="0 0 233.95 313.75"><defs><style>.cls-1{fill:url(#linear-gradient);}</style><linearGradient id="linear-gradient" x1="116.97" y1="0" x2="116.97" y2="313.75" gradientUnits="userSpaceOnUse"><stop offset="0" stop-color="#005a96"/><stop offset=".22" stop-color="#005a96"/><stop offset=".61" stop-color="#ae132a"/></linearGradient></defs><g id="EcDHII"><path class="cls-1" d="M233.94,251.84c-.58.1-1.18.03-1.92.03,0,.44,0,.82,0,1.21,0,8.72-.01,17.44.02,26.16,0,.82-.26,1.33-.92,1.81-2.74,2.04-5.43,4.15-8.16,6.19-.54.4-.74.81-.74,1.48.02,7.83.01,15.65.01,23.48,0,1.5-.04,1.55-1.58,1.55-68.82,0-137.65,0-206.47,0-1.58,0-1.59-.01-1.59-1.62,0-7.79,0-15.59.01-23.38,0-.7-.2-1.14-.78-1.56-2.88-2.02-5.7-4.11-8.59-6.11-.75-.52-1-1.09-.99-1.98.03-8.59.02-17.18.02-25.77,0-.43,0-.86,0-1.46-.57,0-1.1.07-1.59-.03-.25-.05-.66-.43-.62-.58.06-.28.44-.72.61-.69,1.14.21,1.6-.52,2.25-1.25,3.01-3.36,6.11-6.64,9.14-9.98.31-.34.52-.91.52-1.37.03-12.07.02-24.14.02-36.21,0-.23-.06-.52.06-.68.17-.23.46-.47.72-.5.16-.02.43.33.52.57.09.23.03.52.03.79,0,12,0,24.01.02,36.01,0,.47.21,1.04.51,1.4,2.8,3.28,5.65,6.51,8.47,9.77.34.39.6.84,1,1.4.33,0,.86,0,1.39,0,.5,0,1.05.08.94.69-.05.27-.61.55-.99.64-.47.11-.98.03-1.61.03v1.21c0,8.69-.02,17.38.02,26.06,0,.91-.3,1.45-1,1.97-2.74,2.04-5.45,4.12-8.14,6.22-.29.23-.6.67-.6,1.01-.03,7.86-.02,15.72-.02,23.58,0,.13.03.25.05.44h75.31c.02-.22.06-.47.06-.72,0-7.66,0-15.32.02-22.98,0-.64-.2-1-.72-1.36-2.96-2.08-5.87-4.22-8.83-6.29-.69-.48-.89-1.02-.89-1.82.02-8.66.01-17.31.01-25.97v-1.34c-.59,0-1.08.09-1.5-.03-.3-.08-.53-.44-.8-.68.25-.21.48-.54.76-.61.44-.1.92-.03,1.23-.03.44-.57.76-1.06,1.16-1.49,3.05-3.32,6.11-6.63,9.17-9.95.91-.99,1.06-.98,1.93.03.91,1.05,1.82,2.1,2.79,3.21,1.47-.86,2.93-1.69,4.35-2.59.23-.15.38-.6.38-.91.02-6.57.03-13.13-.02-19.7,0-.46-.37-1.04-.75-1.35-2.79-2.24-5.6-4.46-8.46-6.62-.78-.59-1.06-1.2-1.04-2.17.06-2.88.02-5.76.02-8.77-.54,0-.99,0-1.45,0-24.05,0-48.09,0-72.14.02-.98,0-1.66-.27-2.3-1.02-2.39-2.75-4.87-5.43-7.26-8.19-.37-.42-.62-1.09-.64-1.66-.06-2.75,0-5.5-.04-8.26-.01-.91.32-1.23,1.22-1.22,2.28.04,4.57.01,6.97.01.02-.37.05-.69.05-1,0-7.86,0-15.72.02-23.58,0-.68-.23-1.08-.77-1.46-2.9-2.04-5.76-4.14-8.66-6.18-.68-.47-.93-1-.92-1.81.02-8.69.01-17.38.01-26.06v-1.26c-.58,0-1.06.09-1.48-.03-.3-.08-.52-.45-.78-.69.25-.21.47-.53.76-.6.4-.1.85-.03,1.19-.03.5-.62.93-1.2,1.41-1.72,3.01-3.27,6.02-6.54,9.04-9.8.82-.88.99-.87,1.79.06,2.94,3.38,5.88,6.75,8.81,10.14.31.36.55.79.91,1.32.23,0,.62-.02,1.02,0,.55.04,1.38-.23,1.35.69-.03.9-.85.61-1.41.65-.36.03-.72,0-1.15,0v16.88h2.48c0-1.55.04-3.06-.01-4.58-.03-.89.27-1.3,1.19-1.26.79.04,1.59.02,2.39,0,.74-.01,1.08.29,1.06,1.07-.04,1.55-.01,3.11-.01,4.74h4.64c0-1.41,0-2.85,0-4.3,0-1.42.1-1.52,1.52-1.52.66,0,1.33.02,1.99,0,.84-.03,1.2.33,1.18,1.18-.04,1.52,0,3.04,0,4.64h4.64c0-1.48,0-2.99,0-4.5,0-1.2.1-1.3,1.3-1.31.73,0,1.46.02,2.19,0,.79-.03,1.15.28,1.12,1.11-.04,1.55-.01,3.1-.01,4.72h4.7c0-1.4,0-2.81,0-4.22,0-1.6.01-1.62,1.61-1.61,3.58.02,2.93-.38,2.99,3,.02.92,0,1.84,0,2.83h4.64c0-1.49,0-2.97,0-4.45,0-1.22.15-1.37,1.37-1.38.7,0,1.39.03,2.09,0,.88-.04,1.26.32,1.24,1.23-.05,1.52-.01,3.04-.01,4.61h4.64c0-1.57.04-3.12-.01-4.66-.03-.88.33-1.21,1.16-1.18.76.03,1.53.04,2.29,0,.92-.05,1.22.37,1.2,1.25-.05,1.52-.01,3.03-.01,4.59h1.62v-16.9c-.35,0-.65,0-.94,0-.55-.01-1.29.12-1.27-.7.02-.81.78-.63,1.32-.65.26-.01.53,0,.64,0,.47-.59.82-1.1,1.23-1.55,3.01-3.27,6.02-6.54,9.04-9.8,1.01-1.1,1.11-1.09,2.06.01,2.87,3.31,5.75,6.6,8.61,9.92.35.41.63.89,1,1.42.43,0,.97-.08,1.48.03.34.07.63.41.95.63-.3.23-.57.6-.91.67-.53.11-1.1.03-1.77.03,0,.49,0,.88,0,1.27,0,8.66-.01,17.31.02,25.97,0,.94-.3,1.5-1.04,2.05-2.67,1.97-5.3,3.99-7.9,6.03-.33.26-.65.78-.65,1.19-.09,8.02-.14,16.05-.2,24.07,0,.22,0,.45,0,.78,2.38,0,4.65,0,6.93,0,1.5,0,1.57.06,1.57,1.56,0,2.65.03,5.31-.03,7.96-.01.53-.27,1.17-.63,1.56-2.77,2.99-5.6,5.93-8.39,8.9-.24.25-.42.67-.42,1.01-.04,2.69-.04,5.37,0,8.06,0,.39.24.9.54,1.14,2.9,2.32,5.82,4.61,8.76,6.88.6.46.89.94.89,1.73-.03,6.83-.03,13.66,0,20.49,0,.79-.21,1.27-.93,1.66-1.4.75-2.74,1.6-4.2,2.47,2.04,2.39,4.02,4.7,6.14,7.18.29,0,.86-.08,1.4.03.31.06.56.41.84.63-.27.23-.51.6-.82.66-.57.11-1.17.03-1.81.03v15.53h3.41c0-1.66,0-3.27,0-4.89,0-1.32.11-1.43,1.4-1.44.66,0,1.33.04,1.99,0,.94-.07,1.32.28,1.29,1.25-.05,1.65-.01,3.31-.01,5.05h4.46c0-1.66,0-3.31,0-4.96,0-1.2.13-1.33,1.3-1.34.73,0,1.46.04,2.19-.01.93-.06,1.23.36,1.21,1.24-.04,1.68-.01,3.36-.01,5.1h4.45c0-1.26,0-2.47,0-3.69,0-3-.26-2.62,2.68-2.64.3,0,.6.02.9,0,.83-.06,1.13.34,1.11,1.13-.02,1.39,0,2.79,0,4.18,0,.32.03.65.05,1.02h2.49c2.8-59.51,5.59-119.02,8.39-178.53q-1.52-.38-1.52-1.96c0-1.23.05-2.46-.02-3.68-.05-.95.37-1.21,1.24-1.2,4.11.02,8.23-.03,12.34.03.96.01,1.32-.32,1.55-1.19.52-1.95.56-1.94,2.52-2.06.13,0,.25-.05.37-.08-.75-16.57-.08-33.09.53-49.71-.44,0-.8,0-1.15,0-5.21,0-10.41,0-15.62,0-3.63,0-5.23-1.33-5.89-4.93-.13-.68-.2-1.37-.31-2.14-1.28-.09-2.6-.09-3.89-.3-.99-.16-1.99-.49-2.9-.92-.83-.39-1.24-1.19-1.11-2.15.12-.92.89-1.28,1.63-1.37,1.77-.21,3.56-.39,5.34-.37,4.08.03,8.15.21,12.23.28,1.35.02,2.68,0,3.77-1.11.35-.36,1.1-.41,1.68-.46.96-.07,1.92-.01,2.88-.01,3.91,0,5.42-1.52,5.6-5.46.08-1.71.24-3.44.59-5.12.21-1,.77-1.97,1.33-2.85.86-1.34,2.24-1.89,3.77-2.12h1.99c3.67,1.07,5.28,3.19,5.55,7.32.08,1.22.11,2.45.2,3.67.2,2.86,1.79,4.42,4.65,4.53,1.23.05,2.47-.1,3.68.05.8.1,1.53.63,2.32.88.89.28,1.82.64,2.74.64,4.21-.03,8.42-.21,12.63-.25,1.68-.02,3.37.12,5.05.3.89.09,1.81.37,2,1.47.16.95-.33,1.95-1.48,2.33-1.39.46-2.88.67-4.34.9-.67.11-1.37.02-1.93.02-.37,1.47-.6,2.85-1.07,4.14-.79,2.16-2.2,3.03-4.5,3.03-5.44,0-10.88,0-16.32,0-.36,0-.73,0-1.25,0,.59,16.59,1.28,33.13.52,49.72.12.02.25.06.37.07,1.94.11,1.98.1,2.51,2.06.23.87.6,1.2,1.55,1.19,4.34-.06,8.69-.02,13.03-.02,1.35,0,1.47.12,1.47,1.47,0,1.29,0,2.59,0,3.88,0,1.17-.14,1.3-1.32,1.31-.36,0-.71,0-1.17,0,2.7,57.48,5.4,114.86,8.09,172.18.12.08.17.15.22.15,1.77.06,1.97-.33,1.94,2.12-.02,1.39,0,2.77,0,4.22h4.46c0-1.11-.01-2.22,0-3.34.04-3.45-.47-2.93,3.02-2.98.07,0,.13,0,.2,0,1.35,0,1.44.09,1.44,1.49,0,1.59,0,3.17,0,4.82h1.69v-15.52c-.5,0-1,.08-1.46-.03-.27-.06-.48-.42-.72-.64.24-.22.45-.57.72-.64.44-.11.92-.03,1.25-.03.44-.56.77-1.05,1.16-1.48,3.07-3.35,6.16-6.68,9.24-10.02.84-.91,1-.9,1.79.01,2.94,3.38,5.88,6.75,8.81,10.14.33.39.59.84.94,1.35.48,0,1.09-.07,1.67.03M196.24,261.05c-2.7-57.51-5.4-114.88-8.1-172.28h-49.1c-.04.3-.1.56-.12.81-.35,7.48-.7,14.97-1.04,22.45-.29,6.26-.57,12.52-.87,18.78-.37,7.91-.75,15.83-1.13,23.74-.29,6.19-.57,12.39-.86,18.58-.37,7.95-.76,15.9-1.13,23.84-.29,6.19-.57,12.39-.87,18.58-.37,7.85-.75,15.7-1.12,23.54-.24,5.07-.48,10.13-.72,15.2-.2,4.17-.39,8.35-.57,12.52,0,.21.13.43.2.65.09-.02.19-.04.28-.05.02-.31.06-.62.06-.93,0-1.46.02-2.92,0-4.38,0-.71.29-1.05,1.01-1.03.73.02,1.46,0,2.19,0,1.39,0,1.47.07,1.47,1.46,0,1.61,0,3.22,0,4.84h4.48c0-1.77.03-3.46-.01-5.15-.02-.88.34-1.2,1.18-1.15.66.04,1.33,0,1.99,0,1.4,0,1.46.06,1.46,1.45,0,1.62,0,3.23,0,4.87h1.53c.02-.25.04-.44.05-.63.39-15.68.79-31.36,1.16-47.04.3-12.43.56-24.86.86-37.29.43-17.87.9-35.73,1.31-53.6.11-4.88.95-9.61,2.42-14.24.92-2.89,2.16-5.63,4.19-7.94,3.75-4.24,9.31-4.49,13.31-.48,1.16,1.16,2.17,2.53,2.95,3.97,3.09,5.68,4.7,11.83,4.92,18.25.37,11,.48,22.01.72,33.02.36,16.71.75,33.42,1.11,50.12.3,13.92.59,27.85.86,41.77.05,2.55,0,5.1,0,7.71,1.05.05,1.16.6,1.15,1.32-.03,1.68-.01,3.36-.01,5.07h4.41c.02-.37.05-.7.05-1.02,0-1.39.02-2.79,0-4.18-.01-.78.29-1.18,1.12-1.14.73.04,1.46,0,2.19,0,1.27,0,1.38.11,1.38,1.35,0,1.65,0,3.29,0,4.98h4.45c0-1.73.03-3.42-.01-5.1-.02-.81.23-1.29,1.2-1.26ZM150.75,262.48c0,1.63,0,3.21,0,4.8,0,1.49-.04,1.53-1.48,1.53-1.46,0-2.92-.05-4.38.02-.95.04-1.31-.27-1.27-1.24.06-1.68.02-3.36.02-5.08h-2c0,1.69,0,3.31,0,4.93,0,1.27-.1,1.38-1.34,1.38-1.46,0-2.92,0-4.38,0-1.39,0-1.41-.02-1.41-1.37,0-1.65,0-3.29,0-4.96h-2c0,1.73-.04,3.41.01,5.09.03.96-.35,1.3-1.29,1.26-1.39-.06-2.79-.01-4.18-.01q-1.69,0-1.69-1.71c0-1.54,0-3.09,0-4.62h-2c0,1.74-.03,3.42.01,5.1.02.89-.27,1.27-1.2,1.24-1.56-.05-3.12-.01-4.68-.01-1.19,0-1.28-.09-1.28-1.33,0-1.65,0-3.3,0-4.99h-2c0,1.81-.02,3.56,0,5.31.01.72-.29,1.02-1,1.01-1.62-.02-3.25-.05-4.87,0-.95.03-1.31-.31-1.28-1.27.05-1.68.01-3.36.01-5.05h-1.91c-.04.14-.08.2-.08.26,0,1.29-.01,2.59-.02,3.88,0,2.33.24,2.17-2.12,2.16-.81,0-1.63,0-2.58,0,0,3.53-.02,6.91.01,10.28,0,.83-.23,1.39-.93,1.91-2.7,1.98-5.32,4.06-8.01,6.06-.57.42-.77.87-.76,1.57.02,7.36.02,14.72.02,22.08v1.13c43.4.13,86.65.25,129.88.38.05-.29.08-.38.08-.48.02-7.86.05-15.72.03-23.57,0-.34-.3-.79-.59-1.01-2.88-2.12-5.79-4.21-8.71-6.28-.63-.45-.89-.94-.88-1.73.05-3.08.02-6.17.02-9.25v-1.11c-.64,0-1.13,0-1.63,0-1.32,0-1.36-.04-1.36-1.33,0-1.65,0-3.3,0-4.99h-2c0,1.72,0,3.37,0,5.02,0,1.18-.12,1.29-1.33,1.29-1.53,0-3.05-.04-4.58.02-.97.04-1.29-.33-1.25-1.28.06-1.68.02-3.36.02-5.04h-2c0,1.76-.03,3.45.01,5.14.02.85-.28,1.22-1.15,1.18-.89-.05-1.79,0-2.69,0q-3.32,0-3.32-3.27c0-1.02,0-2.03,0-3.03h-2c0,1.8-.02,3.52,0,5.25.01.77-.29,1.08-1.06,1.06-1.52-.03-3.05,0-4.58,0-1.49,0-1.52-.02-1.52-1.5,0-1.61,0-3.22,0-4.82h-2c0,1.64,0,3.22,0,4.8q0,1.52-1.47,1.52c-1.39,0-2.79,0-4.18,0-1.44,0-1.48-.05-1.48-1.54,0-1.58,0-3.16,0-4.77h-2c0,1.73,0,3.38,0,5.03,0,1.23-.05,1.27-1.31,1.27-1.36,0-2.72,0-4.08,0q-1.72,0-1.72-1.69c0-1.54,0-3.08,0-4.63h-2.01c0,1.78-.02,3.49,0,5.21.01.79-.26,1.14-1.1,1.12-1.56-.05-3.12-.01-4.68-.01-1.26,0-1.32-.06-1.33-1.36,0-1.65,0-3.3,0-4.96h-2.01ZM167.64,267.41c.02-.37.04-.7.05-1.02,0-1.33,0-2.65,0-3.98,0-1.22.11-1.32,1.28-1.33.7,0,1.4.04,2.09-.01.96-.07,1.3.32,1.26,1.27-.06,1.68-.02,3.36-.02,5.03h4.48c0-1.41,0-2.73,0-4.06q0-2.15,2.08-2.27c.06,0,.11-.06.24-.13,0-.32,0-.68,0-1.03-.26-12.4-.53-24.79-.8-37.19-.29-13.82-.57-27.64-.87-41.46-.36-16.77-.8-33.54-1.08-50.31-.07-4.35-.68-8.57-1.86-12.73-1.06-3.75-2.41-7.37-5.01-10.38-3.73-4.31-8.98-4.19-12.51.26-2.01,2.54-3.08,5.53-4,8.59-1.71,5.75-1.88,11.67-1.99,17.61-.19,9.71-.43,19.42-.66,29.13-.3,12.49-.62,24.99-.92,37.48-.23,9.61-.44,19.22-.67,28.83-.3,12.26-.61,24.52-.91,36.79,0,.29.03.58.04.86h1.55c0-1.8.02-3.52,0-5.24-.01-.76.28-1.1,1.05-1.07.76.03,1.53.05,2.29,0,.94-.07,1.32.27,1.29,1.25-.06,1.68-.02,3.36-.02,5.08h4.53c0-1.78.02-3.5-.01-5.22-.02-.82.31-1.15,1.12-1.1.66.04,1.33,0,1.99,0q1.5,0,1.5,1.5c0,1.61,0,3.22,0,4.83h4.47ZM23.7,136.85c0,3.24-.01,6.32.01,9.39,0,.62-.17,1.03-.69,1.41-2.81,2.05-5.58,4.16-8.38,6.22-.54.4-.74.82-.74,1.48.02,7.82.01,15.65.01,23.47,0,.35,0,.7,0,1.07h30.3c.07-.09.1-.12.1-.14.01-2.55,0-5.1.04-7.65.06-3.6,2.75-6.53,6.3-6.92,3.55-.38,6.82,1.9,7.64,5.39.18.76.2,1.57.2,2.36.03,2.31,0,4.62,0,6.94h30.6c.02-.2.05-.33.05-.46.06-8.09.13-16.18.15-24.27,0-.37-.3-.85-.61-1.08-2.96-2.18-5.95-4.32-8.96-6.44-.58-.41-.81-.85-.79-1.56.04-1.96.02-3.91.02-5.87,0-1.08,0-2.17,0-3.35-.59,0-1.04,0-1.5,0-1.48,0-1.49-.01-1.49-1.51,0-1.45,0-2.89,0-4.34h-2c0,1.58-.03,3.1.01,4.62.02.89-.3,1.27-1.22,1.25-1.62-.04-3.25-.05-4.87,0-.97.03-1.28-.36-1.25-1.3.06-1.51.02-3.03.02-4.55h-1.92c-.04.14-.07.21-.07.27,0,1.43,0,2.85-.01,4.28,0,1.19-.1,1.28-1.32,1.29-1.49,0-2.98,0-4.48,0-1.42,0-1.51-.09-1.51-1.52,0-1.44,0-2.89,0-4.32h-2c0,1.59-.04,3.11.01,4.62.03.9-.28,1.26-1.2,1.23-1.36-.05-2.72-.01-4.08-.01q-1.97,0-1.97-1.92c0-1.31,0-2.62,0-3.92h-2.02c0,1.62-.02,3.17,0,4.72.01.8-.3,1.15-1.11,1.13-1.62-.03-3.25,0-4.87,0-1.21,0-1.31-.11-1.32-1.29,0-1.51,0-3.03,0-4.54h-2.01c0,1.47,0,2.86,0,4.25q0,1.58-1.63,1.58c-1.39,0-2.79,0-4.18,0-1.43,0-1.5-.07-1.5-1.53,0-1.44,0-2.88,0-4.31h-1.94c0,1.43-.02,2.78,0,4.13.03,1.68.02,1.7-1.7,1.7-.69,0-1.38,0-2.15,0ZM132.76,20.63c.34,1.58.59,3.28,1.08,4.91.45,1.48,1.55,2.16,3.18,2.15,5.97-.05,11.94-.02,17.91-.02.35,0,.69,0,1.08,0-.59,17.58-1.45,34.99-.46,52.5-.48,0-.9,0-1.33,0-1.65,0-1.67.02-1.84,1.82h22.35c-.15-1.77-.2-1.82-1.84-1.82-.42,0-.85,0-1.32,0,.96-17.55.13-34.98-.47-52.5h1.2c5.77,0,11.54,0,17.31,0,2.47,0,3.41-.66,4-3.08.33-1.33.44-2.72.65-4.16.2,0,.46.04.71.03,1.84-.12,3.7-.18,5.53-.41.58-.07,1.1-.62,1.65-.95-.04-.13-.08-.27-.12-.4-.56-.14-1.12-.37-1.68-.4-1.75-.08-3.51-.13-5.27-.1-3.78.06-7.56.22-11.34.25-1.27,0-2.58-.05-3.69-.92-.41-.32-.96-.58-1.47-.62-1.15-.09-2.32,0-3.48-.04-3.55-.1-5.53-1.82-6.1-5.31-.12-.72-.04-1.46-.13-2.18-.18-1.51-.22-3.07-.67-4.5-1.15-3.67-3.35-3.82-6.19-3.37-1.9.3-2.85,1.84-3.2,3.55-.39,1.87-.52,3.8-.64,5.71-.23,3.8-2.4,5.99-6.2,6.1-1.19.04-2.39-.02-3.58.03-.4.02-.8.22-1.18.39-.74.32-1.44.92-2.19.97-2.61.15-5.23.14-7.84.13-3.41,0-6.83-.1-10.24-.07-.62,0-1.23.41-1.85.64.56.39,1.09,1.04,1.7,1.13,1.98.29,4,.38,5.96.55ZM25.33,181.33h-8.79c0,2.87.02,5.68-.03,8.49,0,.33-.32.89-.56.93-.65.12-.66-.46-.66-.94,0-2.52,0-5.04,0-7.56,0-.31,0-.63,0-.93H5.67c0,2.75-.02,5.44.02,8.12,0,.31.26.67.48.92,2.31,2.61,4.66,5.18,6.94,7.8.51.59,1.03.79,1.79.79,9.78-.02,19.57-.01,29.35-.01,14.59,0,29.19,0,43.78-.02.48,0,1.1-.14,1.41-.46,2.62-2.68,5.18-5.42,7.75-8.15.21-.23.46-.55.47-.83.03-2.71.02-5.42.02-8.18h-10.65c0,.25,0,.44,0,.63,0,2.59,0,5.17,0,7.76,0,.48.06,1.14-.67,1.04-.24-.03-.57-.65-.58-1.01-.05-2.35-.03-4.71-.03-7.06,0-.45,0-.9,0-1.33h-8.77c0,1.93,0,3.79,0,5.64,0,.99.05,1.99-.03,2.98-.02.29-.41.56-.62.83-.22-.28-.51-.52-.64-.84-.11-.25-.02-.59-.02-.89,0-2.58,0-5.15,0-7.73h-8.79c0,2.87,0,5.65,0,8.43,0,.46.05,1.02-.64,1-.69-.01-.6-.58-.6-1.03,0-1.16,0-2.32,0-3.48,0-1.65,0-3.29,0-4.94h-8.78v1.05c0,2.39,0,4.78,0,7.16,0,.51.12,1.22-.63,1.23-.84.01-.68-.73-.68-1.27-.01-1.13,0-2.25,0-3.38,0-1.58,0-3.16,0-4.77h-8.78c0,2.38,0,4.7,0,7.02,0,.6.05,1.2-.03,1.79-.04.24-.38.43-.58.64-.21-.21-.51-.38-.6-.64-.11-.29-.04-.65-.04-.99,0-2.61,0-5.22,0-7.84h-8.77c0,2.69.01,5.31-.01,7.93,0,.57.28,1.48-.64,1.5-.97.02-.63-.91-.64-1.47-.03-2.64-.01-5.28-.01-7.96h-8.77c0,2.28,0,4.49,0,6.71,0,.66.06,1.33-.03,1.99-.04.28-.37.52-.57.78-.23-.26-.53-.49-.68-.79-.11-.21-.03-.52-.03-.79,0-2.62,0-5.23,0-7.89ZM80.26,118.59c-.02.29-.05.48-.05.68,0,8.78-.01,17.56.03,26.34,0,.42.37.97.73,1.24,2.72,2.01,5.49,3.94,8.21,5.94.55.41.91.41,1.45-.01,2.53-1.98,5.09-3.93,7.66-5.85.54-.4.72-.84.72-1.5-.02-8.62-.01-17.23-.01-25.85,0-.32-.03-.64-.04-.99h-18.69ZM89.83,286.56c2.84-2.13,5.59-4.21,8.36-6.24.6-.44.82-.91.82-1.65-.03-8.55-.02-17.11-.02-25.66,0-.35,0-.7,0-1.05h-18.67c-.05.13-.09.19-.09.25,0,8.99-.02,17.97,0,26.96,0,.27.21.64.43.8,3.02,2.2,6.07,4.38,9.16,6.6ZM3.67,251.93c-.04.15-.09.24-.09.33,0,8.95-.01,17.89.02,26.84,0,.34.32.77.62.99,2.78,2.03,5.6,4.01,8.37,6.05.55.4.88.33,1.36-.04,2.51-1.95,5.04-3.88,7.59-5.78.6-.45.81-.92.8-1.65-.03-8.55-.02-17.1-.02-25.65,0-.35,0-.71,0-1.1H3.67ZM3.68,118.61c-.06.15-.08.18-.08.21-.01,9.01-.02,18.02-.01,27.03,0,.25.16.59.36.74,3.07,2.24,6.17,4.45,9.31,6.71,2.93-2.23,5.83-4.42,8.7-6.67.26-.2.36-.75.36-1.14.02-8.65.02-17.29.01-25.94,0-.31-.03-.63-.04-.95H3.68ZM211.98,251.91c-.02.27-.04.43-.04.59,0,8.82,0,17.63.02,26.45,0,.38.29.87.6,1.1,2.74,2.03,5.53,3.99,8.28,6.01.58.43.99.42,1.57-.02,2.48-1.94,4.98-3.85,7.51-5.72.56-.42.78-.86.78-1.56-.02-8.58-.02-17.17-.02-25.75,0-.35,0-.7,0-1.09h-18.7ZM190.61,83.45h-53.13v3.84h53.13v-3.84ZM51.39,179.92c1.66,0,3.31-.02,4.97,0,.58,0,.86-.17.86-.78-.03-2.48.07-4.97-.08-7.45-.18-3.01-2.71-5.22-5.72-5.21-3.01,0-5.53,2.22-5.7,5.24-.14,2.44-.05,4.9-.08,7.35,0,.63.24.87.89.86,1.62-.03,3.25-.01,4.87-.01ZM13.26,106.71c-3.25,3.52-6.39,6.93-9.67,10.48h18.79l-9.12-10.48ZM89.91,106.7c-3.25,3.52-6.39,6.93-9.65,10.46h18.73c-3.07-3.54-6.03-6.94-9.09-10.46ZM89.91,240.02c-3.24,3.51-6.38,6.91-9.62,10.42h18.67c-3.05-3.51-6-6.91-9.06-10.42ZM22.35,250.47c-3.09-3.55-6.05-6.96-9.08-10.45-3.22,3.49-6.37,6.9-9.65,10.45h18.74ZM230.73,250.51c-3.12-3.59-6.1-7.01-9.12-10.48-3.25,3.52-6.39,6.93-9.67,10.48h18.79ZM50.63,272.8c-1.66,0-3.32.01-4.97,0-1.39-.01-2.08-.7-2.08-2.08-.01-3.05-.02-6.1,0-9.15.02-3.98,3.09-7.08,7.03-7.12,3.93-.05,7.12,2.98,7.21,6.95.08,3.11.03,6.23.01,9.35,0,1.35-.75,2.04-2.13,2.05-1.69.01-3.38,0-5.07,0ZM50.7,271.51c1.56,0,3.12-.03,4.67.01.85.02,1.17-.27,1.15-1.15-.05-2.91,0-5.83-.02-8.75-.02-3.26-2.56-5.85-5.75-5.9-3.15-.05-5.79,2.54-5.83,5.79-.03,2.98.01,5.96-.02,8.95,0,.77.25,1.08,1.03,1.06,1.59-.03,3.18,0,4.77,0ZM59.41,214.08c0,1.82.01,3.65,0,5.47-.01,1.64-.68,2.3-2.29,2.31-.83,0-1.66.02-2.49,0-1.16-.03-1.89-.71-1.9-1.85-.02-3.98-.02-7.96,0-11.93,0-1.08.72-1.81,1.8-1.87.99-.05,1.99-.05,2.98,0,1.18.06,1.87.83,1.89,2.12.03,1.92,0,3.85,0,5.77ZM58.09,214c0-1.79-.03-3.58.01-5.37.02-.79-.23-1.19-1.08-1.12-.59.05-1.2.06-1.79,0-.91-.09-1.23.26-1.22,1.18.04,2.98.02,5.97.02,8.95,0,2.98,0,2.95,2.95,2.92.89,0,1.14-.35,1.12-1.19-.04-1.79-.01-3.58-.01-5.37ZM52.72,239.87c0-1.89,0-3.78,0-5.67,0-1.32.67-2.05,1.97-2.11.89-.05,1.79-.04,2.68,0,1.3.06,2.01.77,2.02,2.1.03,3.84.03,7.69,0,11.53-.01,1.34-.73,2-2.05,2.03-.83.02-1.66.01-2.49,0-1.48-.02-2.13-.66-2.14-2.12-.01-1.92,0-3.84,0-5.77ZM54.03,239.86c0,1.89.01,3.77,0,5.66,0,.66.24.99.92.98.73-.02,1.46,0,2.18,0,.65,0,.96-.28.96-.96-.01-3.74-.01-7.48,0-11.22,0-.69-.34-.94-.99-.92-.66.02-1.33.04-1.99,0-.83-.06-1.11.31-1.09,1.11.03,1.79.01,3.57.01,5.36ZM43.34,214.01c0-1.89-.01-3.78,0-5.67.01-1.48.71-2.15,2.22-2.17.83,0,1.66-.03,2.49,0,1.15.04,1.92.71,1.93,1.85.04,4.01.04,8.02,0,12.03-.01,1.15-.78,1.77-1.96,1.79-.89.02-1.79.02-2.68,0-1.28-.03-1.96-.69-1.98-1.97-.03-1.95,0-3.91,0-5.87ZM48.72,214.12c0-1.85-.02-3.7,0-5.56.01-.75-.26-1.1-1.05-1.05-.63.04-1.26.06-1.88,0-.96-.09-1.19.36-1.18,1.22.03,2.98-.01,5.95.02,8.93.03,3.4-.52,2.8,2.97,2.89.88.02,1.15-.34,1.13-1.18-.04-1.75-.01-3.51-.01-5.26ZM43.34,239.96c0-1.92-.01-3.84,0-5.77.01-1.34.67-2.04,1.98-2.11.89-.05,1.79-.04,2.68,0,1.28.06,1.97.73,1.98,2.01.03,3.91.03,7.82,0,11.73-.01,1.24-.72,1.89-1.93,1.92-.93.03-1.86.03-2.78,0-1.22-.03-1.9-.7-1.92-1.93-.03-1.95,0-3.91,0-5.86h0ZM44.62,239.86c0,1.85.02,3.71,0,5.56,0,.75.28,1.11,1.05,1.08.59-.03,1.19-.04,1.79,0,.95.07,1.29-.31,1.28-1.27-.04-2.98,0-5.96-.02-8.94-.02-3.38.47-2.83-2.98-2.91-.83-.02-1.13.31-1.12,1.11.03,1.79,0,3.58,0,5.36ZM94.23,226.39c0,1.23.03,2.45,0,3.68-.04,1.46-.73,2.11-2.16,2.13-.86,0-1.72.02-2.59,0-1.15-.03-1.89-.72-1.9-1.85-.03-2.62-.03-5.24,0-7.86.01-1.08.74-1.79,1.83-1.82.93-.03,1.86-.01,2.78,0,1.26.02,1.97.66,2.03,1.94.05,1.26.01,2.52.01,3.78h0ZM88.89,226.44c0,.56-.01,1.12,0,1.69.08,3.22-.67,2.75,2.94,2.79.07,0,.13,0,.2,0,.6-.01.89-.28.89-.92-.02-2.38-.01-4.76,0-7.14,0-.56-.2-.87-.81-.86-.73,0-1.45-.01-2.18-.05-.75-.04-1.09.23-1.05,1.03.05,1.15.01,2.31.01,3.47ZM197.26,289.59c1.16,0,2.32-.01,3.48,0,1.5.02,2.21.71,2.22,2.18.02,2.15.02,4.3,0,6.46-.01,1.41-.73,2.14-2.15,2.16-2.42.03-4.84.03-7.25,0-1.42-.02-2.1-.76-2.11-2.19,0-2.15-.01-4.3,0-6.46,0-1.42.7-2.12,2.14-2.15,1.22-.02,2.45,0,3.68,0ZM197.19,299.07c1.13,0,2.26-.03,3.38.01.76.03,1.08-.22,1.06-1.02-.04-2.05-.03-4.11,0-6.16,0-.7-.2-1.03-.96-1.02-2.32.03-4.64.03-6.96,0-.67,0-.97.23-.97.92.02,2.12.02,4.24,0,6.36,0,.69.3.93.97.91,1.16-.03,2.32,0,3.48,0ZM114.42,289.59c1.19,0,2.38-.02,3.57,0,1.42.03,2.12.73,2.14,2.16.02,2.15.02,4.3,0,6.45-.01,1.42-.72,2.15-2.14,2.17-2.45.04-4.9.04-7.35.02-1.3-.01-2.01-.75-2.03-2.05-.02-2.25-.02-4.5,0-6.75.01-1.3.73-2.02,2.03-2.05,1.26-.02,2.51,0,3.77,0,0,.01,0,.02,0,.03ZM114.44,290.89c-1.19,0-2.38.02-3.57,0-.67-.02-.99.25-.99.92,0,2.12,0,4.23,0,6.35,0,.67.31.93.98.92,2.35-.02,4.7-.02,7.05,0,.62,0,.9-.22.9-.87-.02-2.15-.02-4.3,0-6.45,0-.64-.27-.89-.89-.87-1.16.02-2.32,0-3.47,0ZM170.66,289.59c1.16,0,2.32-.01,3.48,0,1.54.02,2.18.66,2.19,2.17,0,2.15,0,4.3,0,6.45,0,1.45-.65,2.15-2.1,2.17-2.42.03-4.83.03-7.25,0-1.43-.02-2.11-.73-2.12-2.18-.02-2.15-.02-4.3,0-6.45.02-1.45.7-2.13,2.14-2.15,1.22-.02,2.45,0,3.67,0ZM170.68,290.89c-1.19,0-2.38.02-3.57,0-.66-.01-.97.22-.96.92.02,2.12.02,4.24,0,6.35,0,.7.29.93.96.92,2.35-.02,4.7-.02,7.05,0,.7,0,.94-.32.94-.96,0-2.08-.01-4.17,0-6.25,0-.73-.32-1-1.03-.97-1.12.03-2.25,0-3.38,0ZM140.94,300.39c-1.19,0-2.38.02-3.58,0-1.45-.03-2.14-.7-2.16-2.14-.03-2.18-.04-4.37,0-6.55.02-1.44.72-2.09,2.19-2.1,2.38-.02,4.77-.02,7.15,0,1.48.01,2.12.67,2.12,2.13,0,2.18.01,4.37,0,6.55,0,1.39-.66,2.04-2.06,2.12-.07,0-.13,0-.2,0-1.16,0-2.32,0-3.48,0ZM140.98,290.89c-1.16,0-2.32.02-3.48,0-.71-.02-1.03.22-1.02.97.03,2.08.03,4.17,0,6.26,0,.74.3.98,1.01.97,2.32-.03,4.63-.03,6.95,0,.75,0,1-.32.99-1.02-.01-2.05-.02-4.1,0-6.16,0-.78-.33-1.05-1.09-1.03-1.12.04-2.25.01-3.38.01Z"/></g></svg>