<?xml version="1.0" encoding="UTF-8"?><svg id="Layer_1" xmlns="http://www.w3.org/2000/svg" viewBox="0 0 451.78 164.01"><defs><style>.cls-1{fill:#231f20;}.cls-2,.cls-3{fill:#ae132a;}.cls-3{font-family:MyriadPro-Regular, 'Myriad Pro';font-size:31.89px;}.cls-4{fill:#ad1e2d;}</style></defs><path class="cls-4" d="M92.2,12.06c-4.77-6.75-11.82-10.97-19.85-11.86-1.26-.14-2.53-.21-3.78-.21-5.37,0-10.25,1.41-15.81,4.83.47.38,4.08,3.28,7.09,6.04,2.36-1.18,4.68-1.91,7.41-2.09.42-.03,3.18,0,4.13.11,11.66,1.29,18.63,12.17,18.63,25.33,0,1.01-.27,5.07-.36,5.85-.09.79-.81,5.12-1.14,6.54-.22.95-.47,1.93-.76,2.93-.29,1-2.12,6.23-2.84,7.85-1.44,3.25-3.28,6.59-5.62,9.89-.39.55-2.93,3.82-3.89,4.9-2.38,2.69-5.14,5.3-8.35,7.76-8.18,6.28-15.06,6.89-17.61,6.89h-.17c-2.56,0-9.43-.62-17.61-6.89-3.21-2.46-5.97-5.07-8.35-7.76-.95-1.07-1.84-2.16-2.68-3.26-.42-.55-2.25-3.17-2.74-3.93-2.94-4.62-4.97-9.25-6.34-13.54-.2-.64-.4-1.28-.58-1.9-1.85-6.51-2.25-12.06-2.25-15.33,0-6.99,1.96-13.34,5.55-17.95,1.06-1.35,2.26-2.56,3.58-3.58,1.06-.82,2.21-1.53,3.44-2.11,1.84-.87,3.86-1.45,6.05-1.69.86-.1,2.67-.17,2.67-.17,9.72-.3,20.92,10.24,26.93,16.94h0c-4.56,2.69-7.44,5.94-7.44,5.94h-.27s-2.93-3.31-7.57-6l4.78-4.93s-3.48-2.88-7.11-5.31c-2.01,1.99-4.04,4.17-6.03,6.49l-.48.56c-1.49-.21-3.04-.25-4.65-.08-11.22,1.24-11.96,11.7-11.96,15.64,0,5.39,4.35,24.18,19.97,36,6.89,5.21,12.23,5.39,13.18,5.38.1,0,.17,0,.17,0,0,0,5.41.39,13.03-5.37,15.62-11.81,19.97-30.61,19.97-36,0-3.94-.74-14.4-11.96-15.64-1.67-.18-3.3-.12-4.86.11,0,0-5.78-6.47-8.48-8.98l-.02-.02s-1.93-1.72-2.32-2.06c-1.12-.96-2.62-2.19-4.36-3.52-.14-.1-.29-.22-.42-.32-4.48-3.24-11.41-7.56-19.93-7.56-1.25,0-2.51.07-3.77.2-8.04.9-15.09,5.11-19.87,11.86C2.26,18.12,0,25.79,0,34.22c0,7.61,1.9,33.87,26.36,52.65,9.86,7.57,18.59,8.7,22.93,8.7h.18c4.33,0,13.06-1.13,22.91-8.7,24.46-18.78,26.36-45.05,26.36-52.65,0-8.44-2.26-16.1-6.54-22.16"/><polygon points="157.57 79.64 157.57 71.3 128.05 71.3 128.05 53.23 148.21 53.23 148.21 44.89 128.05 44.89 128.05 30.74 156.34 30.74 156.34 22.4 119.46 22.4 119.46 79.64 157.57 79.64"/><path d="M188.56,80.54c-8.34,0-15.54-3.6-20.37-9.24l6.14-5.97c3.84,4.17,9.48,6.79,14.88,6.79,8.01,0,11.86-2.78,11.86-8.34,0-4.42-3.35-6.62-12.92-9.48-12.1-3.6-17.9-6.62-17.9-16.85s8.34-15.94,18.89-15.94c7.77,0,13.66,2.86,18.73,7.77l-6.05,6.13c-3.6-3.68-7.69-5.48-13.33-5.48-6.71,0-9.57,3.27-9.57,7.11s2.61,5.97,12.51,8.91c11.29,3.43,18.32,7.04,18.32,17.25s-6.54,17.34-21.18,17.34"/><path d="M244.09,80.54c-14.8,0-24.21-12.18-24.21-29.52s9.41-29.52,24.21-29.52c9.32,0,15.54,3.76,19.46,10.71l-7.6,4.74c-2.95-4.66-5.97-6.87-11.86-6.87-9.97,0-15.38,8.1-15.38,20.94s5.4,20.94,15.38,20.94c5.97,0,9.65-2.46,12.59-7.11l7.11,4.74c-4.09,7.04-11.04,10.96-19.71,10.96"/><path class="cls-2" d="M135.84,124.73c-.99.51-3.06,1.02-5.68,1.02-6.06,0-10.59-3.83-10.59-10.91s4.56-11.29,11.23-11.29c2.65,0,4.37.57,5.1.96l-.7,2.26c-1.02-.51-2.52-.89-4.31-.89-5.04,0-8.39,3.22-8.39,8.87,0,5.29,3.03,8.64,8.23,8.64,1.72,0,3.44-.35,4.56-.89l.54,2.23Z"/><path class="cls-2" d="M152.9,117.55c0,5.71-3.99,8.2-7.69,8.2-4.15,0-7.4-3.06-7.4-7.94,0-5.13,3.41-8.16,7.65-8.16s7.43,3.22,7.43,7.91ZM140.68,117.71c0,3.38,1.91,5.93,4.66,5.93s4.69-2.52,4.69-6c0-2.62-1.31-5.9-4.62-5.9s-4.72,3.06-4.72,5.96Z"/><path class="cls-2" d="M169.35,121.16c0,1.63.03,3.03.13,4.24h-2.49l-.16-2.52h-.06c-.7,1.24-2.36,2.87-5.1,2.87-2.42,0-5.33-1.37-5.33-6.76v-9.02h2.81v8.51c0,2.93.92,4.94,3.44,4.94,1.88,0,3.19-1.31,3.7-2.58.16-.38.26-.89.26-1.44v-9.44h2.81v11.19Z"/><path class="cls-2" d="M174.01,114.14c0-1.63-.03-2.9-.13-4.18h2.49l.16,2.55h.06c.77-1.44,2.55-2.87,5.1-2.87,2.14,0,5.45,1.28,5.45,6.57v9.18h-2.81v-8.9c0-2.49-.92-4.56-3.57-4.56-1.82,0-3.25,1.31-3.76,2.87-.13.35-.19.83-.19,1.31v9.28h-2.81v-11.26Z"/><path class="cls-2" d="M202.71,124.86c-.73.35-2.36.89-4.43.89-4.66,0-7.69-3.16-7.69-7.88s3.25-8.23,8.29-8.23c1.66,0,3.13.41,3.89.83l-.64,2.14c-.67-.35-1.72-.73-3.25-.73-3.54,0-5.45,2.65-5.45,5.84,0,3.57,2.3,5.77,5.36,5.77,1.59,0,2.65-.38,3.44-.73l.48,2.1Z"/><path class="cls-2" d="M209.12,105.63c0,.96-.67,1.72-1.79,1.72-1.02,0-1.69-.77-1.69-1.72s.7-1.75,1.75-1.75,1.72.77,1.72,1.75ZM206,125.4v-15.44h2.81v15.44h-2.81Z"/><path class="cls-2" d="M213.46,102.76h2.81v22.64h-2.81v-22.64Z"/><text class="cls-3" transform="translate(225.39 125.4)"><tspan x="0" y="0"> </tspan></text><path class="cls-1" d="M135.84,162.99c-.99.51-3.06,1.02-5.68,1.02-6.06,0-10.59-3.83-10.59-10.91s4.56-11.29,11.23-11.29c2.65,0,4.37.57,5.1.96l-.7,2.26c-1.02-.51-2.52-.89-4.31-.89-5.04,0-8.39,3.22-8.39,8.87,0,5.29,3.03,8.64,8.23,8.64,1.72,0,3.44-.35,4.56-.89l.54,2.23Z"/><path class="cls-1" d="M149.9,159.97c0,1.34.06,2.65.22,3.7h-2.52l-.22-1.95h-.1c-.86,1.21-2.52,2.3-4.72,2.3-3.12,0-4.72-2.2-4.72-4.43,0-3.73,3.32-5.77,9.28-5.74v-.32c0-1.24-.35-3.57-3.51-3.54-1.47,0-2.97.42-4.05,1.15l-.64-1.88c1.28-.8,3.16-1.34,5.1-1.34,4.72,0,5.87,3.22,5.87,6.28v5.77ZM147.19,155.79c-3.06-.06-6.54.48-6.54,3.48,0,1.85,1.21,2.68,2.62,2.68,2.04,0,3.35-1.28,3.79-2.58.1-.32.13-.64.13-.89v-2.68Z"/><path class="cls-1" d="M154.43,153.04c0-1.82-.03-3.38-.13-4.82h2.46l.13,3.06h.1c.7-2.07,2.42-3.38,4.31-3.38.29,0,.51.03.77.06v2.65c-.29-.06-.57-.06-.96-.06-1.98,0-3.38,1.47-3.76,3.57-.06.38-.1.86-.1,1.31v8.23h-2.81v-10.62Z"/><path class="cls-1" d="M177.84,141.02v18.66c0,1.37.06,2.93.13,3.99h-2.49l-.13-2.68h-.1c-.83,1.72-2.68,3.03-5.2,3.03-3.73,0-6.63-3.16-6.63-7.84-.03-5.13,3.19-8.26,6.92-8.26,2.39,0,3.95,1.12,4.66,2.33h.06v-9.22h2.77ZM175.06,154.51c0-.35-.03-.83-.13-1.18-.41-1.75-1.95-3.22-4.05-3.22-2.9,0-4.62,2.55-4.62,5.93,0,3.12,1.56,5.71,4.56,5.71,1.88,0,3.6-1.28,4.11-3.35.1-.38.13-.77.13-1.21v-2.68Z"/><path class="cls-1" d="M185.65,143.89c0,.96-.67,1.72-1.79,1.72-1.02,0-1.69-.77-1.69-1.72s.7-1.75,1.75-1.75,1.72.77,1.72,1.75ZM182.53,163.66v-15.44h2.81v15.44h-2.81Z"/><path class="cls-1" d="M203.96,155.82c0,5.71-3.99,8.2-7.69,8.2-4.15,0-7.4-3.06-7.4-7.94,0-5.13,3.41-8.16,7.65-8.16s7.43,3.22,7.43,7.91ZM191.74,155.98c0,3.38,1.91,5.93,4.66,5.93s4.69-2.52,4.69-6c0-2.62-1.31-5.9-4.62-5.9s-4.72,3.06-4.72,5.96Z"/><path class="cls-1" d="M208.36,148.23l3.03,8.64c.51,1.44.92,2.71,1.24,3.99h.1c.35-1.28.8-2.55,1.31-3.99l3-8.64h2.93l-6.06,15.44h-2.68l-5.87-15.44h3Z"/><path class="cls-1" d="M233.36,159.97c0,1.34.06,2.65.22,3.7h-2.52l-.22-1.95h-.1c-.86,1.21-2.52,2.3-4.72,2.3-3.12,0-4.72-2.2-4.72-4.43,0-3.73,3.32-5.77,9.28-5.74v-.32c0-1.24-.35-3.57-3.51-3.54-1.47,0-2.97.42-4.05,1.15l-.64-1.88c1.28-.8,3.16-1.34,5.1-1.34,4.72,0,5.87,3.22,5.87,6.28v5.77ZM230.65,155.79c-3.06-.06-6.54.48-6.54,3.48,0,1.85,1.21,2.68,2.62,2.68,2.04,0,3.35-1.28,3.79-2.58.1-.32.13-.64.13-.89v-2.68Z"/><path class="cls-1" d="M237.51,160.83c.86.51,2.33,1.08,3.73,1.08,2.01,0,2.97-.99,2.97-2.3s-.8-2.04-2.84-2.81c-2.81-1.02-4.11-2.52-4.11-4.37,0-2.49,2.04-4.53,5.33-4.53,1.56,0,2.93.41,3.76.96l-.67,2.04c-.61-.38-1.72-.93-3.16-.93-1.66,0-2.55.96-2.55,2.11,0,1.28.89,1.85,2.9,2.65,2.65.99,4.05,2.33,4.05,4.62,0,2.74-2.14,4.66-5.74,4.66-1.69,0-3.25-.45-4.34-1.08l.67-2.1Z"/><path class="cls-1" d="M261.52,163.12c-.73.35-2.36.89-4.43.89-4.66,0-7.69-3.16-7.69-7.88s3.25-8.23,8.29-8.23c1.66,0,3.12.41,3.89.83l-.64,2.14c-.67-.35-1.72-.73-3.25-.73-3.54,0-5.45,2.65-5.45,5.84,0,3.57,2.3,5.77,5.36,5.77,1.59,0,2.65-.38,3.44-.73l.48,2.1Z"/><path class="cls-1" d="M277.72,159.42c0,1.63.03,3.03.13,4.24h-2.49l-.16-2.52h-.06c-.7,1.24-2.36,2.87-5.1,2.87-2.42,0-5.33-1.37-5.33-6.76v-9.03h2.81v8.52c0,2.93.92,4.94,3.44,4.94,1.88,0,3.19-1.31,3.7-2.58.16-.38.25-.89.25-1.43v-9.44h2.81v11.19Z"/><path class="cls-1" d="M282.38,141.02h2.81v22.64h-2.81v-22.64Z"/><path class="cls-1" d="M300.75,159.97c0,1.34.06,2.65.22,3.7h-2.52l-.22-1.95h-.1c-.86,1.21-2.52,2.3-4.72,2.3-3.12,0-4.72-2.2-4.72-4.43,0-3.73,3.32-5.77,9.28-5.74v-.32c0-1.24-.35-3.57-3.51-3.54-1.47,0-2.97.42-4.05,1.15l-.64-1.88c1.28-.8,3.16-1.34,5.1-1.34,4.72,0,5.87,3.22,5.87,6.28v5.77ZM298.04,155.79c-3.06-.06-6.54.48-6.54,3.48,0,1.85,1.21,2.68,2.62,2.68,2.04,0,3.35-1.28,3.79-2.58.1-.32.13-.64.13-.89v-2.68Z"/><path class="cls-1" d="M305.28,153.04c0-1.82-.03-3.38-.13-4.82h2.46l.13,3.06h.1c.7-2.07,2.42-3.38,4.31-3.38.29,0,.51.03.77.06v2.65c-.29-.06-.57-.06-.96-.06-1.98,0-3.38,1.47-3.76,3.57-.06.38-.1.86-.1,1.31v8.23h-2.81v-10.62Z"/><path class="cls-1" d="M338.95,162.71c-1.24.48-3.73,1.18-6.63,1.18-3.25,0-5.93-.83-8.04-2.84-1.85-1.79-3-4.66-3-8,0-6.41,4.43-11.1,11.64-11.1,2.49,0,4.46.54,5.39.99l-.7,2.26c-1.15-.54-2.58-.92-4.75-.92-5.23,0-8.64,3.25-8.64,8.64s3.25,8.67,8.29,8.67c1.82,0,3.06-.25,3.7-.57v-6.41h-4.34v-2.23h7.08v10.33Z"/><path class="cls-1" d="M344.79,156.46c.06,3.79,2.46,5.36,5.29,5.36,2.01,0,3.25-.35,4.27-.8l.51,2.01c-.99.45-2.71.99-5.17.99-4.75,0-7.59-3.16-7.59-7.81s2.74-8.29,7.24-8.29c5.07,0,6.38,4.4,6.38,7.24,0,.57-.03.99-.1,1.31h-10.84ZM353.02,154.45c.03-1.75-.73-4.53-3.89-4.53-2.87,0-4.08,2.58-4.3,4.53h8.2Z"/><path class="cls-1" d="M359.2,152.41c0-1.63-.03-2.9-.13-4.18h2.49l.16,2.55h.06c.77-1.44,2.55-2.87,5.1-2.87,2.14,0,5.45,1.28,5.45,6.57v9.18h-2.81v-8.9c0-2.49-.92-4.56-3.57-4.56-1.82,0-3.25,1.31-3.76,2.87-.13.35-.19.83-.19,1.31v9.28h-2.81v-11.26Z"/><path class="cls-1" d="M390.87,155.82c0,5.71-3.99,8.2-7.69,8.2-4.15,0-7.4-3.06-7.4-7.94,0-5.13,3.41-8.16,7.65-8.16s7.43,3.22,7.43,7.91ZM378.66,155.98c0,3.38,1.91,5.93,4.66,5.93s4.69-2.52,4.69-6c0-2.62-1.31-5.9-4.62-5.9s-4.72,3.06-4.72,5.96Z"/><path class="cls-1" d="M394.41,152.41c0-1.63-.06-2.9-.13-4.18h2.46l.13,2.52h.1c.86-1.47,2.3-2.84,4.88-2.84,2.07,0,3.67,1.28,4.34,3.09h.06c.48-.89,1.12-1.53,1.75-2.01.93-.7,1.91-1.08,3.38-1.08,2.07,0,5.1,1.34,5.1,6.7v9.06h-2.74v-8.71c0-3-1.12-4.75-3.35-4.75-1.63,0-2.84,1.18-3.35,2.52-.13.41-.22.89-.22,1.4v9.54h-2.74v-9.25c0-2.46-1.08-4.21-3.22-4.21-1.72,0-3.03,1.4-3.48,2.81-.16.38-.22.89-.22,1.37v9.28h-2.74v-11.26Z"/><path class="cls-1" d="M424.13,143.89c0,.96-.67,1.72-1.79,1.72-1.02,0-1.69-.77-1.69-1.72s.7-1.75,1.75-1.75,1.72.77,1.72,1.75ZM421.01,163.66v-15.44h2.81v15.44h-2.81Z"/><path class="cls-1" d="M439.47,163.12c-.73.35-2.36.89-4.43.89-4.66,0-7.69-3.16-7.69-7.88s3.25-8.23,8.29-8.23c1.66,0,3.12.41,3.89.83l-.64,2.14c-.67-.35-1.72-.73-3.25-.73-3.54,0-5.45,2.65-5.45,5.84,0,3.57,2.3,5.77,5.36,5.77,1.59,0,2.65-.38,3.44-.73l.48,2.1Z"/><path class="cls-1" d="M442.38,160.83c.86.51,2.33,1.08,3.73,1.08,2.01,0,2.97-.99,2.97-2.3s-.8-2.04-2.84-2.81c-2.81-1.02-4.11-2.52-4.11-4.37,0-2.49,2.04-4.53,5.33-4.53,1.56,0,2.93.41,3.76.96l-.67,2.04c-.61-.38-1.72-.93-3.16-.93-1.66,0-2.55.96-2.55,2.11,0,1.28.89,1.85,2.9,2.65,2.65.99,4.05,2.33,4.05,4.62,0,2.74-2.14,4.66-5.74,4.66-1.69,0-3.25-.45-4.34-1.08l.67-2.1Z"/></svg>